<svg width="16" height="16" viewBox="0 0 16 16" fill="none" xmlns="http://www.w3.org/2000/svg">
<path d="M1 0.75H3C3.13807 0.75 3.25 0.861929 3.25 1V3C3.25 3.13807 3.13807 3.25 3 3.25H1C0.861929 3.25 0.75 3.13807 0.75 3V1C0.75 0.861929 0.861929 0.75 1 0.75ZM1 6.75H3C3.13807 6.75 3.25 6.86193 3.25 7V9C3.25 9.13807 3.13807 9.25 3 9.25H1C0.861929 9.25 0.75 9.13807 0.75 9V7C0.75 6.86193 0.861929 6.75 1 6.75ZM1 12.75H3C3.13807 12.75 3.25 12.8619 3.25 13V15C3.25 15.1381 3.13807 15.25 3 15.25H1C0.861929 15.25 0.75 15.1381 0.75 15V13C0.75 12.8619 0.861929 12.75 1 12.75ZM7 0.75H9C9.13807 0.75 9.25 0.861929 9.25 1V3C9.25 3.13807 9.13807 3.25 9 3.25H7C6.86193 3.25 6.75 3.13807 6.75 3V1C6.75 0.861929 6.86193 0.75 7 0.75ZM7 6.75H9C9.13807 6.75 9.25 6.86193 9.25 7V9C9.25 9.13807 9.13807 9.25 9 9.25H7C6.86193 9.25 6.75 9.13807 6.75 9V7C6.75 6.86193 6.86193 6.75 7 6.75ZM7 12.75H9C9.13807 12.75 9.25 12.8619 9.25 13V15C9.25 15.1381 9.13807 15.25 9 15.25H7C6.86193 15.25 6.75 15.1381 6.75 15V13C6.75 12.8619 6.86193 12.75 7 12.75ZM13 0.75H15C15.1381 0.75 15.25 0.861929 15.25 1V3C15.25 3.13807 15.1381 3.25 15 3.25H13C12.8619 3.25 12.75 3.13807 12.75 3V1C12.75 0.861929 12.8619 0.75 13 0.75ZM13 6.75H15C15.1381 6.75 15.25 6.86193 15.25 7V9C15.25 9.13807 15.1381 9.25 15 9.25H13C12.8619 9.25 12.75 9.13807 12.75 9V7C12.75 6.86193 12.8619 6.75 13 6.75ZM13 12.75H15C15.1381 12.75 15.25 12.8619 15.25 13V15C15.25 15.1381 15.1381 15.25 15 15.25H13C12.8619 15.25 12.75 15.1381 12.75 15V13C12.75 12.8619 12.8619 12.75 13 12.75Z" stroke="currentColor" stroke-width="1.5" stroke-linejoin="round"/>
</svg>
