<svg width="20" height="17" viewBox="0 0 20 17" fill="none" xmlns="http://www.w3.org/2000/svg">
<path d="M1.875 12.5C0.820312 12.5 0 13.3594 0 14.375C0 15.4297 0.820312 16.25 1.875 16.25C2.89062 16.25 3.75 15.4297 3.75 14.375C3.75 13.3594 2.89062 12.5 1.875 12.5ZM1.875 6.25C0.820312 6.25 0 7.10938 0 8.125C0 9.17969 0.820312 10 1.875 10C2.89062 10 3.75 9.17969 3.75 8.125C3.75 7.10938 2.89062 6.25 1.875 6.25ZM1.875 0C0.820312 0 0 0.859375 0 1.875C0 2.92969 0.820312 3.75 1.875 3.75C2.89062 3.75 3.75 2.92969 3.75 1.875C3.75 0.859375 2.89062 0 1.875 0ZM19.375 0.9375H6.875C6.52344 0.9375 6.25 1.25 6.25 1.5625V2.1875C6.25 2.53906 6.52344 2.8125 6.875 2.8125H19.375C19.6875 2.8125 20 2.53906 20 2.1875V1.5625C20 1.25 19.6875 0.9375 19.375 0.9375ZM19.375 7.1875H6.875C6.52344 7.1875 6.25 7.5 6.25 7.8125V8.4375C6.25 8.78906 6.52344 9.0625 6.875 9.0625H19.375C19.6875 9.0625 20 8.78906 20 8.4375V7.8125C20 7.5 19.6875 7.1875 19.375 7.1875ZM19.375 13.4375H6.875C6.52344 13.4375 6.25 13.75 6.25 14.0625V14.6875C6.25 15.0391 6.52344 15.3125 6.875 15.3125H19.375C19.6875 15.3125 20 15.0391 20 14.6875V14.0625C20 13.75 19.6875 13.4375 19.375 13.4375Z" fill="#141414"/>
</svg>
