<svg width="23" height="18" viewBox="0 0 23 18" fill="none" xmlns="http://www.w3.org/2000/svg">
<path d="M18.75 15H16.875V15.3906C16.875 15.5469 16.7578 15.625 16.6406 15.625H2.10938C1.95312 15.625 1.875 15.5469 1.875 15.3906V5.85938C1.875 5.74219 1.95312 5.625 2.10938 5.625H2.5V3.75H1.875C0.820312 3.75 0 4.60938 0 5.625V15.625C0 16.6797 0.820312 17.5 1.875 17.5H16.875C17.8906 17.5 18.75 16.6797 18.75 15.625V15ZM20.3906 1.875C20.5078 1.875 20.625 1.99219 20.625 2.10938V11.6406C20.625 11.7969 20.5078 11.875 20.3906 11.875H5.85938C5.70312 11.875 5.625 11.7969 5.625 11.6406V2.10938C5.625 1.99219 5.70312 1.875 5.85938 1.875H20.3906ZM20.625 0H5.625C4.57031 0 3.75 0.859375 3.75 1.875V11.875C3.75 12.9297 4.57031 13.75 5.625 13.75H20.625C21.6406 13.75 22.5 12.9297 22.5 11.875V1.875C22.5 0.859375 21.6406 0 20.625 0ZM10.3125 4.375C10.3125 3.51562 9.60938 2.8125 8.75 2.8125C7.85156 2.8125 7.1875 3.51562 7.1875 4.375C7.1875 5.27344 7.85156 5.9375 8.75 5.9375C9.60938 5.9375 10.3125 5.27344 10.3125 4.375ZM7.5 8.125V10H18.75V6.875L15.9375 4.10156C15.7422 3.90625 15.4688 3.90625 15.2734 4.10156L11.25 8.125L9.6875 6.60156C9.49219 6.40625 9.21875 6.40625 9.02344 6.60156L7.5 8.125Z" fill="#141414"/>
</svg>
