<svg width="24" height="18" viewBox="0 0 24 18" fill="none" xmlns="http://www.w3.org/2000/svg">
<path d="M20.8906 1.875C21.0078 1.875 21.125 1.99219 21.125 2.10938V3L23 3.5V1.875C23 0.859375 22.1406 0 21.125 0H6.125C5.07031 0 4.25 0.859375 4.25 1.875V11.875C4.25 12.9297 5.07031 13.75 6.125 13.75H21.125C22.1406 13.75 23 12.9297 23 11.875V11L21.125 11.2812V11.6406C21.125 11.7969 21.0078 11.875 20.8906 11.875H6.35938C6.20312 11.875 6.125 11.7969 6.125 11.6406V2.10938C6.125 1.99219 6.20312 1.875 6.35938 1.875H20.8906Z" fill="#141414"/>
<path fill-rule="evenodd" clip-rule="evenodd" d="M19.25 15H17.375V15.3906C17.375 15.5469 17.2578 15.625 17.1406 15.625H2.60938C2.45312 15.625 2.375 15.5469 2.375 15.3906V5.85938C2.375 5.74219 2.45312 5.625 2.60938 5.625H3V3.75H2.375C1.32031 3.75 0.5 4.60938 0.5 5.625V15.625C0.5 16.6797 1.32031 17.5 2.375 17.5H17.375C18.3906 17.5 19.25 16.6797 19.25 15.625V15Z" fill="#141414"/>
<path d="M10.575 10.408H11.61V4.108H10.566L9 5.296V6.304H9.09L10.539 5.197H10.575V10.408Z" fill="#141414"/>
<path d="M13.3892 10.408H17.5562V9.472H14.7842V9.436L16.3322 7.78C17.1062 6.952 17.4572 6.457 17.4572 5.773C17.4572 4.747 16.6652 4 15.4322 4C14.1632 4 13.3712 4.774 13.3712 5.989H14.3882C14.3882 5.269 14.8112 4.918 15.4322 4.918C16.0712 4.918 16.4042 5.278 16.4042 5.809C16.4042 6.304 16.1432 6.61 15.5042 7.303L13.3892 9.58V10.408Z" fill="#141414"/>
<path d="M20.8162 10.489C22.2922 10.489 23.0212 9.616 23.0212 8.572C23.0212 7.843 22.5802 7.276 21.9142 7.069V7.033C22.4902 6.817 22.8232 6.376 22.8232 5.674C22.8232 4.657 21.9322 4 20.7892 4C19.5112 4 18.7012 4.711 18.6742 5.89H19.7092C19.7182 5.314 20.0512 4.909 20.7622 4.909C21.4462 4.909 21.7612 5.296 21.7612 5.764C21.7612 6.313 21.3652 6.673 20.6992 6.673H20.1683V7.582H20.7173C21.5453 7.582 21.9593 7.969 21.9593 8.59C21.9593 9.166 21.5723 9.58 20.8073 9.58C19.9523 9.58 19.6102 9.085 19.6102 8.563H18.5842C18.5842 9.787 19.5112 10.489 20.8162 10.489Z" fill="#141414"/>
</svg>
